PathFileType	4	(X/Y/Z)	D:\TRACE\v60_Jaco2_6-2-23\ArmBodyNoDRS_DMP_1-v60.trc
DataRate	CameraRate	NumFrames	NumMarkers	Units	OrigDataRate	OrigDataStartFrame	OrigNumFrames
100.00	100.00	      42	9	mm	100.00	2658	      5315
Frame#	Time	front left toe			Front right toe			aft left toe			aft right toe			Arm			FL body			FR body			AL Body			AR Body			
		X1	Y1	Z1	X2	Y2	Z2	X3	Y3	Z3	X4	Y4	Z4	X5	Y5	Z5	X6	Y6	Z6	X7	Y7	Z7	X8	Y8	Z8	X9	Y9	Z9	

2658	26.570	-95.05079	145.50659	-255.85260	288.00546	17.22154	-269.74197	-73.11044	12.16842	361.12183	129.99313	1026.09143	-183.70444	52.81841	1127.93945	-609.24951	13.91175	573.22797	-398.09134	172.90215	574.42676	-400.54959	42.14570	565.63452	547.92108	196.19133	554.50952	544.46759	
2659	26.580	-93.87086	141.67932	-254.71187	288.01175	17.16171	-269.71860	-73.19171	12.08672	361.10489	290.24210	140.28505	359.60101	54.03951	1127.86108	-608.91888	14.22422	572.89056	-397.54645	173.15074	574.20142	-400.07040	40.87698	565.43750	546.49426	195.30171	554.65240	545.16974	
2660	26.590	-92.85982	136.18941	-253.88004	287.94244	17.10355	-269.60992	-73.19835	12.00574	361.16687	289.29984	135.42468	361.34796	54.89315	1127.94446	-608.50720	14.50760	572.55859	-396.94531	173.27054	574.08234	-399.69357	39.68160	565.51508	547.02637	194.65094	554.60663	545.49469	
2661	26.600	-91.76073	130.49248	-253.42194	287.95096	17.20091	-269.51660	-73.19471	11.96342	361.19489	288.49802	129.72356	363.01221	55.46608	1128.00549	-608.25592	14.62797	572.63464	-396.76035	174.17004	574.49207	-399.73737	38.90805	565.53052	547.32758	193.82446	554.61676	545.99683	
2662	26.610	-91.44219	123.98726	-252.82161	288.07349	17.24144	-269.32645	-73.21640	11.98591	361.18616	287.12912	122.74837	364.33673	55.89906	1127.93823	-608.02820	15.02615	572.66644	-396.53281	174.39648	574.42139	-399.30902	38.86465	565.38593	547.97101	193.16370	554.63129	546.52405	
2663	26.620	-91.81667	117.38087	-252.65512	288.00421	17.10097	-269.34909	-73.34731	12.00525	361.17236	286.66983	115.26071	365.65143	56.37408	1127.91870	-607.51495	15.30714	572.86963	-396.58655	174.84116	574.41437	-398.86301	37.73830	565.36060	548.31592	192.15518	554.45374	546.90076	
2664	26.630	116.44149	664.52374	-264.32401	288.06659	17.06216	-269.19733	-73.82281	12.05108	361.28027	286.91519	106.98131	366.95483	56.59730	1127.95520	-607.01935	15.87730	572.82782	-396.38318	175.21538	574.40833	-398.41431	36.35093	565.09973	548.35449	191.41943	554.24701	547.43225	
2665	26.640	-169.15167	816.59216	-255.25847	288.07428	17.08350	-269.07181	-73.93984	11.80016	361.08929	285.75949	98.23748	368.30502	56.82079	1127.83789	-606.69830	16.17771	572.82715	-396.02023	175.44296	574.49133	-398.07919	35.93862	565.05457	548.69843	190.32391	554.15906	547.94550	
2666	26.650	128.63591	1036.68420	-186.49786	288.26996	17.17847	-268.88852	-73.95979	11.66085	361.09598	284.98163	89.66682	369.82947	57.08354	1127.88586	-606.16144	16.58120	572.77472	-395.53235	175.72169	574.61426	-397.60379	34.74185	565.07092	549.23914	189.68802	554.04102	548.58191	
2667	26.660	-169.39937	816.70734	-254.64040	288.18976	17.14523	-268.90317	-74.00104	11.79070	361.07947	282.73853	80.68851	371.12976	57.88387	1128.03748	-605.35938	16.85565	572.97943	-395.31439	175.99629	574.56635	-396.92056	34.21326	565.20679	549.46313	189.11595	553.97107	549.03241	
2668	26.670	-91.66798	77.09068	-250.90604	288.18970	17.19824	-268.86722	-73.98656	11.88535	361.15579	280.21698	71.36433	371.36307	58.52900	1128.18018	-604.75031	17.05765	573.03052	-395.08154	176.08990	574.60626	-396.65622	33.51717	565.25317	549.76489	188.44035	553.95526	549.30579	
2669	26.680	204.37901	671.54956	-264.27261	288.88702	17.22849	-268.65314	-74.01509	11.77357	361.06403	279.28799	62.76136	371.95813	59.67119	1127.96411	-603.96362	17.26324	573.05499	-394.85068	176.28189	574.54303	-396.26862	32.41526	565.08075	549.86633	187.33667	553.99518	550.40216	
2670	26.690	204.48798	671.32526	-264.34427	288.72580	17.20484	-268.55603	-73.74989	11.49864	360.97662	279.02859	54.23297	372.22861	60.22295	1127.95789	-603.24115	17.04974	573.09442	-394.93320	176.19460	574.26141	-395.59961	31.42747	564.86401	550.32648	186.46542	553.78131	551.02673	
2671	26.700	-93.06947	51.21516	-249.78281	288.67276	17.14838	-268.53830	-73.86127	11.30910	360.96426	278.98407	46.19914	372.17709	61.14636	1127.67761	-602.66577	17.32043	573.05090	-394.66910	176.45267	574.22449	-395.23810	31.07462	564.82404	550.65411	185.45078	553.31934	550.54297	
2672	26.710	-93.51278	43.33749	-249.49161	288.69446	17.19285	-268.49112	-73.90651	11.23349	360.95361	278.47546	38.28848	371.95776	61.55544	1127.41394	-602.01276	17.68208	573.10107	-394.43204	176.73050	574.32666	-394.65347	30.05594	564.53076	550.68622	185.19788	553.24829	550.92938	
2673	26.720	-94.49989	36.08529	-249.27367	288.59128	17.22467	-268.44516	-73.95692	11.21276	360.91025	278.11566	31.54640	371.98917	62.12928	1127.34058	-601.43390	18.14063	573.12891	-394.11478	177.00722	574.44482	-394.29260	29.23211	564.45538	551.06757	184.19214	552.99500	552.14209	
2674	26.730	-95.12595	30.74807	-250.18774	288.32590	17.08676	-268.56308	-74.06485	11.16480	360.83621	277.40277	24.91189	371.98059	62.75254	1127.37976	-601.11945	18.37793	573.22742	-393.95612	177.11412	574.48035	-393.95712	28.33998	564.39691	551.22552	183.38403	552.92566	552.36041	
2675	26.740	-94.98228	24.27049	-250.25790	288.31070	17.04666	-268.51355	-74.10641	11.05185	360.80289	276.67749	20.07098	371.09512	63.41312	1127.52771	-600.67371	18.59605	573.15222	-393.64236	177.34572	574.39258	-393.64517	27.52143	564.32880	551.47461	182.47318	552.95459	552.70190	
2676	26.750	-95.79488	23.15166	-252.36177	288.22958	16.89831	-268.53415	-74.10452	11.04280	360.85141	277.39734	18.49743	370.97928	63.92536	1127.68713	-600.14136	18.75322	573.09186	-393.39011	177.62263	574.31171	-393.28723	27.06991	564.34265	551.70825	181.85394	553.11823	553.05042	
2677	26.760	-95.72500	20.71905	-251.60248	288.22116	16.94937	-268.29498	-73.92802	11.35666	360.93143	277.55774	17.99469	370.15866	64.36688	1127.63501	-599.87811	19.06165	573.35803	-393.03476	178.47264	574.60065	-393.12555	25.67560	565.64453	551.99677	179.89845	554.14856	553.64453	
2678	26.770	-95.53162	21.65131	-252.00778	287.69659	17.69478	-268.25037	-73.68338	12.17555	360.73486	277.59409	18.34844	370.81433	65.24974	1127.75378	-600.23346	19.20931	574.24158	-392.89667	178.83000	575.20093	-392.36652	25.13957	567.19525	552.48639	179.97971	555.78033	554.17908	
2679	26.780	-95.33172	20.96593	-250.55530	287.15308	20.48914	-267.57205	-73.54786	14.69840	361.33432	277.01062	17.91156	371.23361	65.80792	1127.98779	-600.48090	19.51032	575.29962	-392.65524	179.05719	576.39764	-391.92819	24.17731	567.89343	552.89923	179.08566	556.51923	554.66888	
2680	26.790	-95.62520	21.68637	-251.80099	284.28769	24.32923	-264.75104	-71.24304	17.37126	364.05936	277.05905	17.72106	370.96780	66.83477	1128.32764	-600.15997	20.54284	576.02570	-392.34622	179.62253	577.20636	-391.55136	23.16065	568.03833	553.22614	178.09341	556.82684	555.07587	
2681	26.800	-95.44747	21.07809	-251.79041	282.21545	29.38021	-261.25034	-68.58766	23.98693	364.65109	277.12338	17.68964	370.93658	67.48326	1129.31067	-599.73773	20.89405	576.64978	-392.39828	179.58258	577.32214	-390.85812	22.35575	568.38330	553.15387	176.09711	557.14935	555.24127	
2682	26.810	-95.49136	20.91706	-251.87138	279.97314	38.11613	-260.23514	-66.21695	31.85966	364.96350	276.98096	17.75390	371.04407	67.95720	1130.39026	-598.87689	20.97080	576.72412	-392.38760	179.89824	577.38483	-390.64090	21.32172	568.60327	553.15521	176.66254	557.27734	554.86176	
2683	26.820	-95.62009	20.88319	-251.87285	279.10547	47.72985	-260.27890	-64.86907	42.07979	363.36215	276.98557	17.65861	371.03500	68.92095	1131.56165	-598.07611	21.04389	576.56897	-392.34317	179.81853	577.40381	-390.54547	20.70066	568.48145	553.24225	176.33160	557.20551	554.95575	
2684	26.830	-95.69008	20.81370	-251.88675	280.17911	58.92078	-260.82962	-65.74628	53.38945	362.17221	276.99539	17.54506	370.97818	69.29669	1131.91089	-597.71735	21.01534	576.47778	-392.25211	180.32687	577.63263	-390.94974	20.77880	568.22479	553.47406	175.27803	556.88293	555.27289	
2685	26.840	-95.80096	20.74515	-251.88443	281.63632	70.36182	-261.53445	-68.47739	64.48582	360.92255	277.02884	17.52243	370.95724	69.60942	1131.73816	-597.35760	21.03479	576.33405	-392.08783	180.20822	577.51752	-390.77319	20.44638	567.51880	553.40649	174.51355	556.07654	555.80786	
2686	26.850	-95.95834	20.58519	-251.79523	282.95142	81.69635	-261.94290	-72.12313	75.13023	360.31232	277.27875	17.46442	371.03748	69.54428	1131.02856	-597.00659	20.93871	576.15277	-391.83133	180.03217	577.44385	-390.55460	20.05510	566.79901	553.70917	174.87027	555.42029	555.91162	
2687	26.860	-95.99957	20.21995	-251.68362	284.17566	93.09079	-261.79312	-75.07227	85.68684	360.12778	277.31772	17.46274	371.03473	69.62724	1130.24133	-596.62732	20.95735	576.02411	-391.69797	180.03139	577.21844	-390.28290	20.12519	565.81177	554.13611	174.76729	554.44513	556.21613	
2688	26.870	-95.95390	20.13719	-251.59592	284.94382	104.04392	-261.10883	-77.38720	95.99420	359.87598	277.39188	17.40669	371.10648	69.12105	1129.56018	-596.28333	20.98205	575.81598	-391.35876	179.95407	576.98914	-390.01843	20.28607	565.25055	554.25464	174.50156	553.82739	556.48132	
2689	26.880	-96.04128	20.15404	-251.60921	285.41818	114.40231	-260.21408	-78.51321	106.08202	360.13434	277.57437	17.25346	371.24466	68.19697	1129.19885	-596.06757	20.74303	575.73840	-391.32675	180.07370	576.78925	-389.68890	20.10227	564.85950	554.47296	174.20114	553.52667	556.81018	
2690	26.890	-96.15681	20.11996	-251.67464	285.79755	123.70341	-259.10178	-79.05126	115.68972	360.35425	277.67123	17.18237	371.32535	67.70985	1129.23523	-595.63977	20.47201	575.22546	-391.09760	179.83690	575.77509	-388.80035	20.13841	564.65997	554.75928	174.11333	553.40924	557.20532	
2691	26.900	-96.19561	20.07981	-251.62071	286.07114	131.67303	-258.19952	-79.95608	124.16980	361.01016	277.70917	17.08423	371.36072	67.52769	1129.19751	-595.23853	20.61234	574.73627	-390.73578	179.62386	575.36761	-388.66306	20.03571	564.77264	555.06512	174.12178	553.46881	557.44537	
2692	26.910	-96.23035	20.00037	-251.44547	287.08420	139.04544	-256.92816	-80.68283	131.34906	361.35303	277.73938	17.03686	371.36557	67.65207	1128.90820	-595.02881	20.87836	574.15356	-389.95877	179.70613	575.06091	-388.38843	20.15204	564.81805	555.34900	174.20645	553.53540	557.63135	
2693	26.920	-96.22041	20.10268	-251.20493	287.92468	144.16177	-255.92397	-82.34595	137.29713	362.13873	277.73965	16.99254	371.38226	68.02580	1128.51941	-594.95801	20.75057	573.99054	-389.60019	179.93127	575.08069	-388.23502	20.11516	564.88367	555.88428	174.28044	553.58197	558.01428	
2694	26.930	-96.33255	20.15975	-251.09131	290.14392	146.82655	-253.82143	-83.99530	139.66562	363.49704	277.75909	16.91058	371.39542	68.22552	1127.86145	-594.86633	20.44811	573.99872	-389.02377	179.71478	575.13599	-387.86407	20.42116	564.84369	556.50085	174.49226	553.64868	558.43011	
2695	26.940	-96.34003	20.17970	-251.15483	289.72885	146.25839	-252.82526	-85.58821	140.53670	364.65997	277.72867	16.92435	371.42221	68.18275	1127.38147	-594.73279	20.15519	573.93835	-388.58780	179.57640	575.15723	-387.54080	20.87227	565.08917	556.98474	174.32343	553.97638	559.09113	
2696	26.950	-96.32036	20.23951	-251.14400	290.02396	143.43333	-250.85753	-86.68909	138.51442	366.04608	277.74521	16.90031	371.42523	67.98140	1126.90906	-594.58197	19.91118	574.07031	-388.57062	179.46127	575.11133	-387.22040	21.03974	565.23474	557.18097	174.87708	553.80383	558.89636	
2697	26.960	-96.36401	20.21338	-250.98215	289.52084	138.89688	-248.94464	-87.40181	135.00424	367.79236	277.72159	16.88448	371.42053	67.33737	1127.05420	-594.28766	20.09081	573.97852	-388.26895	179.42865	574.96478	-386.74512	21.25665	565.29333	557.46130	174.88414	553.81555	559.12842	
2698	26.970	-96.40031	20.20024	-250.90691	289.32632	133.77185	-247.22206	-87.98106	130.75757	369.56094	277.78806	16.91941	371.42264	66.82645	1127.20007	-593.79944	20.27992	573.96698	-387.79016	179.09950	574.67712	-386.03943	21.28701	565.31934	557.71204	174.87460	553.84155	559.49927	
2699	26.980	-96.37440	20.18397	-250.89499	288.68365	127.76280	-245.92885	-88.63423	125.44765	371.39972	277.74313	16.84418	371.42047	66.54268	1127.33484	-593.29407	20.47722	573.65582	-387.13113	179.17130	574.62244	-385.90979	21.48666	565.49329	558.25879	175.42923	553.83331	559.73438	
